<mxfile host="Electron" modified="2024-05-10T11:29:05.793Z" agent="Mozilla/5.0 (Windows NT 10.0; Win64; x64) AppleWebKit/537.36 (KHTML, like Gecko) draw.io/24.2.5 Chrome/120.0.6099.109 Electron/28.1.0 Safari/537.36" etag="LBY43L5hCN2YWO02X9Hx" version="24.2.5" type="device" pages="2">
  <diagram name="Consultar perfil de profesor" id="4Iauk7ChG-Ea0iiA0FDI">
    <mxGraphModel dx="1095" dy="1274" grid="1" gridSize="10" guides="1" tooltips="1" connect="1" arrows="1" fold="1" page="1" pageScale="1" pageWidth="827" pageHeight="1169" math="0" shadow="0">
      <root>
        <mxCell id="0" />
        <mxCell id="1" parent="0" />
        <mxCell id="2u_kejNQmcYjoHIHSHl--3" value="Consultar perfil del profesor" style="swimlane;whiteSpace=wrap;html=1;" parent="1" vertex="1">
          <mxGeometry x="350" y="330" width="980" height="480" as="geometry" />
        </mxCell>
        <mxCell id="2u_kejNQmcYjoHIHSHl--6" value="Presionar en nombre de profesor" style="ellipse;whiteSpace=wrap;html=1;" parent="2u_kejNQmcYjoHIHSHl--3" vertex="1">
          <mxGeometry x="390" y="200" width="120" height="80" as="geometry" />
        </mxCell>
        <mxCell id="2u_kejNQmcYjoHIHSHl--19" value="Acceder a menú de profesores" style="ellipse;whiteSpace=wrap;html=1;" parent="2u_kejNQmcYjoHIHSHl--3" vertex="1">
          <mxGeometry x="120" y="200" width="120" height="80" as="geometry" />
        </mxCell>
        <mxCell id="2u_kejNQmcYjoHIHSHl--21" value="&amp;lt;&amp;lt;include&amp;gt;&amp;gt;" style="html=1;verticalAlign=bottom;labelBackgroundColor=none;endArrow=open;endFill=0;dashed=1;rounded=0;exitX=1;exitY=0.5;exitDx=0;exitDy=0;entryX=0;entryY=0.5;entryDx=0;entryDy=0;" parent="2u_kejNQmcYjoHIHSHl--3" source="2u_kejNQmcYjoHIHSHl--19" target="2u_kejNQmcYjoHIHSHl--6" edge="1">
          <mxGeometry width="160" relative="1" as="geometry">
            <mxPoint x="340" y="210" as="sourcePoint" />
            <mxPoint x="500" y="210" as="targetPoint" />
          </mxGeometry>
        </mxCell>
        <mxCell id="2u_kejNQmcYjoHIHSHl--14" value="Consultar" style="ellipse;whiteSpace=wrap;html=1;" parent="2u_kejNQmcYjoHIHSHl--3" vertex="1">
          <mxGeometry x="820" y="200" width="120" height="80" as="geometry" />
        </mxCell>
        <mxCell id="2u_kejNQmcYjoHIHSHl--22" value="Mostrar perfil" style="ellipse;whiteSpace=wrap;html=1;" parent="2u_kejNQmcYjoHIHSHl--3" vertex="1">
          <mxGeometry x="610" y="200" width="120" height="80" as="geometry" />
        </mxCell>
        <mxCell id="2u_kejNQmcYjoHIHSHl--23" value="&amp;lt;&amp;lt;include&amp;gt;&amp;gt;" style="html=1;verticalAlign=bottom;labelBackgroundColor=none;endArrow=open;endFill=0;dashed=1;rounded=0;entryX=1;entryY=0.5;entryDx=0;entryDy=0;exitX=0;exitY=0.5;exitDx=0;exitDy=0;" parent="2u_kejNQmcYjoHIHSHl--3" source="2u_kejNQmcYjoHIHSHl--14" target="2u_kejNQmcYjoHIHSHl--22" edge="1">
          <mxGeometry width="160" relative="1" as="geometry">
            <mxPoint x="430" y="230" as="sourcePoint" />
            <mxPoint x="590" y="230" as="targetPoint" />
          </mxGeometry>
        </mxCell>
        <mxCell id="2u_kejNQmcYjoHIHSHl--24" value="&amp;lt;&amp;lt;include&amp;gt;&amp;gt;" style="html=1;verticalAlign=bottom;labelBackgroundColor=none;endArrow=open;endFill=0;dashed=1;rounded=0;entryX=0;entryY=0.5;entryDx=0;entryDy=0;exitX=1;exitY=0.5;exitDx=0;exitDy=0;" parent="2u_kejNQmcYjoHIHSHl--3" source="2u_kejNQmcYjoHIHSHl--6" target="2u_kejNQmcYjoHIHSHl--22" edge="1">
          <mxGeometry width="160" relative="1" as="geometry">
            <mxPoint x="620" y="220" as="sourcePoint" />
            <mxPoint x="780" y="220" as="targetPoint" />
          </mxGeometry>
        </mxCell>
        <mxCell id="2u_kejNQmcYjoHIHSHl--4" value="Administrador" style="shape=umlActor;verticalLabelPosition=bottom;verticalAlign=top;html=1;outlineConnect=0;" parent="1" vertex="1">
          <mxGeometry x="260" y="540" width="30" height="60" as="geometry" />
        </mxCell>
        <mxCell id="2u_kejNQmcYjoHIHSHl--20" value="" style="endArrow=classic;html=1;rounded=0;entryX=0;entryY=0.5;entryDx=0;entryDy=0;" parent="1" source="2u_kejNQmcYjoHIHSHl--4" target="2u_kejNQmcYjoHIHSHl--19" edge="1">
          <mxGeometry width="50" height="50" relative="1" as="geometry">
            <mxPoint x="290" y="520" as="sourcePoint" />
            <mxPoint x="790" y="520" as="targetPoint" />
          </mxGeometry>
        </mxCell>
        <mxCell id="2u_kejNQmcYjoHIHSHl--13" value="Gestor de &lt;br&gt;base de datos" style="shape=umlActor;verticalLabelPosition=bottom;verticalAlign=top;html=1;outlineConnect=0;" parent="1" vertex="1">
          <mxGeometry x="1390" y="540" width="30" height="60" as="geometry" />
        </mxCell>
        <mxCell id="2u_kejNQmcYjoHIHSHl--15" value="" style="endArrow=classic;html=1;rounded=0;entryX=1;entryY=0.5;entryDx=0;entryDy=0;" parent="1" source="2u_kejNQmcYjoHIHSHl--13" target="2u_kejNQmcYjoHIHSHl--14" edge="1">
          <mxGeometry width="50" height="50" relative="1" as="geometry">
            <mxPoint x="840" y="570" as="sourcePoint" />
            <mxPoint x="890" y="520" as="targetPoint" />
          </mxGeometry>
        </mxCell>
      </root>
    </mxGraphModel>
  </diagram>
  <diagram id="BLylrIe1ioikhWfoo_0G" name="Caso de uso - Eliminar usuario">
    <mxGraphModel dx="858" dy="828" grid="1" gridSize="10" guides="1" tooltips="1" connect="1" arrows="1" fold="1" page="1" pageScale="1" pageWidth="827" pageHeight="1169" math="0" shadow="0">
      <root>
        <mxCell id="0" />
        <mxCell id="1" parent="0" />
        <mxCell id="KWhHhxgF_X2CVYcM56N6-1" value="Eliminar usuario" style="swimlane;whiteSpace=wrap;html=1;" parent="1" vertex="1">
          <mxGeometry x="351" y="305" width="949" height="560" as="geometry" />
        </mxCell>
        <mxCell id="KWhHhxgF_X2CVYcM56N6-2" value="Acceder al menú de usuarios" style="ellipse;whiteSpace=wrap;html=1;" parent="KWhHhxgF_X2CVYcM56N6-1" vertex="1">
          <mxGeometry x="59" y="240" width="120" height="80" as="geometry" />
        </mxCell>
        <mxCell id="KWhHhxgF_X2CVYcM56N6-3" value="Gestionar usuario" style="ellipse;whiteSpace=wrap;html=1;" parent="KWhHhxgF_X2CVYcM56N6-1" vertex="1">
          <mxGeometry x="299" y="240" width="120" height="80" as="geometry" />
        </mxCell>
        <mxCell id="KWhHhxgF_X2CVYcM56N6-4" value="Consultar" style="ellipse;whiteSpace=wrap;html=1;" parent="KWhHhxgF_X2CVYcM56N6-1" vertex="1">
          <mxGeometry x="785" y="240" width="120" height="80" as="geometry" />
        </mxCell>
        <mxCell id="KWhHhxgF_X2CVYcM56N6-5" value="Eliminar usuario" style="ellipse;whiteSpace=wrap;html=1;" parent="KWhHhxgF_X2CVYcM56N6-1" vertex="1">
          <mxGeometry x="529" y="240" width="120" height="80" as="geometry" />
        </mxCell>
        <mxCell id="KWhHhxgF_X2CVYcM56N6-6" value="&amp;lt;&amp;lt;include&amp;gt;&amp;gt;" style="html=1;verticalAlign=bottom;labelBackgroundColor=none;endArrow=open;endFill=0;dashed=1;rounded=0;entryX=0;entryY=0.5;entryDx=0;entryDy=0;exitX=1;exitY=0.5;exitDx=0;exitDy=0;" parent="KWhHhxgF_X2CVYcM56N6-1" source="KWhHhxgF_X2CVYcM56N6-2" target="KWhHhxgF_X2CVYcM56N6-3" edge="1">
          <mxGeometry width="160" relative="1" as="geometry">
            <mxPoint x="319" y="190" as="sourcePoint" />
            <mxPoint x="479" y="190" as="targetPoint" />
          </mxGeometry>
        </mxCell>
        <mxCell id="KWhHhxgF_X2CVYcM56N6-7" value="&amp;lt;&amp;lt;include&amp;gt;&amp;gt;" style="html=1;verticalAlign=bottom;labelBackgroundColor=none;endArrow=open;endFill=0;dashed=1;rounded=0;entryX=1;entryY=0.5;entryDx=0;entryDy=0;exitX=0;exitY=0.5;exitDx=0;exitDy=0;" parent="KWhHhxgF_X2CVYcM56N6-1" source="KWhHhxgF_X2CVYcM56N6-4" target="KWhHhxgF_X2CVYcM56N6-5" edge="1">
          <mxGeometry width="160" relative="1" as="geometry">
            <mxPoint x="199" y="300" as="sourcePoint" />
            <mxPoint x="299" y="300" as="targetPoint" />
          </mxGeometry>
        </mxCell>
        <mxCell id="KWhHhxgF_X2CVYcM56N6-8" value="&amp;lt;&amp;lt;extend&amp;gt;&amp;gt;" style="html=1;verticalAlign=bottom;labelBackgroundColor=none;endArrow=open;endFill=0;dashed=1;rounded=0;exitX=0;exitY=0.5;exitDx=0;exitDy=0;entryX=1;entryY=0.5;entryDx=0;entryDy=0;" parent="KWhHhxgF_X2CVYcM56N6-1" source="KWhHhxgF_X2CVYcM56N6-5" target="KWhHhxgF_X2CVYcM56N6-3" edge="1">
          <mxGeometry width="160" relative="1" as="geometry">
            <mxPoint x="319" y="190" as="sourcePoint" />
            <mxPoint x="419" y="370" as="targetPoint" />
          </mxGeometry>
        </mxCell>
        <mxCell id="KWhHhxgF_X2CVYcM56N6-9" value="Administrador" style="shape=umlActor;verticalLabelPosition=bottom;verticalAlign=top;html=1;outlineConnect=0;" parent="1" vertex="1">
          <mxGeometry x="230" y="555" width="30" height="60" as="geometry" />
        </mxCell>
        <mxCell id="KWhHhxgF_X2CVYcM56N6-10" value="" style="endArrow=classic;html=1;rounded=0;entryX=0;entryY=0.5;entryDx=0;entryDy=0;" parent="1" source="KWhHhxgF_X2CVYcM56N6-9" target="KWhHhxgF_X2CVYcM56N6-2" edge="1">
          <mxGeometry width="50" height="50" relative="1" as="geometry">
            <mxPoint x="720" y="515" as="sourcePoint" />
            <mxPoint x="770" y="465" as="targetPoint" />
          </mxGeometry>
        </mxCell>
        <mxCell id="KWhHhxgF_X2CVYcM56N6-11" value="Gestor de &lt;br&gt;base de datos" style="shape=umlActor;verticalLabelPosition=bottom;verticalAlign=top;html=1;outlineConnect=0;" parent="1" vertex="1">
          <mxGeometry x="1360" y="555" width="30" height="60" as="geometry" />
        </mxCell>
        <mxCell id="KWhHhxgF_X2CVYcM56N6-12" value="" style="endArrow=classic;html=1;rounded=0;entryX=1;entryY=0.5;entryDx=0;entryDy=0;" parent="1" source="KWhHhxgF_X2CVYcM56N6-11" target="KWhHhxgF_X2CVYcM56N6-4" edge="1">
          <mxGeometry width="50" height="50" relative="1" as="geometry">
            <mxPoint x="806" y="605" as="sourcePoint" />
            <mxPoint x="856" y="555" as="targetPoint" />
          </mxGeometry>
        </mxCell>
      </root>
    </mxGraphModel>
  </diagram>
</mxfile>
